<svg id="Layer_1" data-name="Layer 1" xmlns="http://www.w3.org/2000/svg" viewBox="0 0 500 500"><defs><style>.cls-1{fill:#75c7eb;}</style></defs><path class="cls-1" d="M250.67,499.74c-2,0-4-.09-6,0-6.12.34-12.14-.61-18.2-1.18q-9.39-.88-18.68-2.38a241.16,241.16,0,0,1-31.42-7.34,227.93,227.93,0,0,1-40.11-16.51A273.93,273.93,0,0,1,94.91,445.3a254.62,254.62,0,0,1-26.47-23.95,239.59,239.59,0,0,1-23.87-29.2,243.42,243.42,0,0,1-31.92-65.53,266.16,266.16,0,0,1-9.6-41.07c-1-6.88-1.78-13.81-2.64-20.71,0-.44,0-.88,0-1.32,0-6.45.1-12.9,0-19.34a87.13,87.13,0,0,1,1.17-15.72c.79-4.89,1.41-9.83,2-14.76a192.64,192.64,0,0,1,4.81-25.08,252.71,252.71,0,0,1,20.8-55A234.46,234.46,0,0,1,57.05,91.67a242.39,242.39,0,0,1,19.6-20.93,275,275,0,0,1,45.57-34.69,245.33,245.33,0,0,1,54.83-25,227.39,227.39,0,0,1,35.72-8.1A264.31,264.31,0,0,1,241.44.52,222.27,222.27,0,0,1,264.1,1a269.81,269.81,0,0,1,71.51,14.54,233.82,233.82,0,0,1,67.17,36.87q9.84,7.76,18.85,16.45a266.92,266.92,0,0,1,43.93,55.31,236,236,0,0,1,26.59,63.45,238.71,238.71,0,0,1,5.51,28.66c.87,6.82,1.45,13.66,1.79,20.52.37,7.32.4,14.65.13,22a267.09,267.09,0,0,1-4.21,38.45A238.45,238.45,0,0,1,472,365.1a246.55,246.55,0,0,1-27.28,41.17,273.28,273.28,0,0,1-23.32,25.26,250.26,250.26,0,0,1-31,25.17,240.11,240.11,0,0,1-63.71,31,256,256,0,0,1-37.92,9c-7.5,1.17-15,2.25-22.59,2.9-5.14.45-10.35.09-15.52.09ZM39.3,249.85c0,116.34,93.89,210.87,210,211.05,58.09.09,108.33-20.58,149.48-61.52,40.36-40.16,61.28-89.35,62-146.31.75-58.41-19.62-109-60.65-150.67C359.46,61.1,309.51,40,251.58,39.46,133.49,38.44,39.24,134.56,39.3,249.85Z"/><path class="cls-1" d="M366.35,211.85c20.68-.34,38.17,17.27,38.46,38.16.3,21.61-17.88,38.45-37.88,39.07-20.88.64-39-17.05-39.54-37.9C326.79,229,345.57,211.54,366.35,211.85Z"/><path class="cls-1" d="M134.16,289a38.77,38.77,0,0,1-38.77-38.56c-.09-22,18.4-39.13,39.51-38.63,19.52.46,38,16.37,37.91,38.8C172.7,272.31,154.1,289.42,134.16,289Z"/><path class="cls-1" d="M250.13,289c-19.87.4-38.69-16.59-38.73-38.31A38.79,38.79,0,0,1,251,211.81c19.21.41,37.83,16.14,37.85,38.25C288.84,272.45,270.43,289.23,250.13,289Z"/></svg>